<svg data-v-423bf9ae="" xmlns="http://www.w3.org/2000/svg" viewBox="0 0 299.3377247731041 60" class="font"><!----><!----><defs data-v-423bf9ae=""><linearGradient data-v-423bf9ae="" gradientTransform="rotate(25)" id="1a191f41-4f25-4b56-bb68-5f5bfb824200" x1="0%" y1="0%" x2="100%" y2="0%"><stop data-v-423bf9ae="" offset="0%" style="stop-color: rgb(0, 125, 232); stop-opacity: 1;"></stop><stop data-v-423bf9ae="" offset="100%" style="stop-color: rgb(161, 195, 219); stop-opacity: 1;"></stop></linearGradient></defs><g data-v-423bf9ae="" id="f33ad50e-aabb-4c91-b45f-1efb8a9ffff7" fill="url(#1a191f41-4f25-4b56-bb68-5f5bfb824200)" transform="matrix(4.415010987956055,0,0,4.415010987956055,-4.9448122520715,-13.554083199872736)"><path d="M7.39 8.33C8.34 7.99 8.81 7.32 8.81 6.44C8.81 5.18 7.91 4.17 6.31 3.98C5.82 3.92 5.60 3.92 5.08 3.92L1.12 3.92L1.12 13.58L4.97 13.58C5.59 13.58 5.91 13.58 6.40 13.52C7.70 13.37 9.17 12.47 9.17 10.67C9.17 9.49 8.61 8.68 7.39 8.33ZM3.64 5.88L4.77 5.88C5.00 5.88 5.22 5.89 5.40 5.92C5.88 5.99 6.17 6.26 6.17 6.80C6.17 7.38 5.85 7.62 5.39 7.69C5.21 7.71 5.00 7.73 4.77 7.73L3.64 7.73ZM5.63 11.61C5.45 11.62 5.22 11.62 5.00 11.62L3.64 11.62L3.64 9.55L4.93 9.55C5.15 9.55 5.38 9.55 5.56 9.56C6.08 9.60 6.54 9.94 6.54 10.58C6.54 11.21 6.08 11.58 5.63 11.61ZM12.75 3.29L10.23 3.29L10.23 10.93C10.23 11.49 10.23 11.87 10.26 12.26C10.32 13.26 10.98 13.72 12.14 13.72C12.70 13.72 13.15 13.69 13.61 13.65L13.61 11.94C12.95 11.97 12.82 11.87 12.78 11.58C12.75 11.40 12.75 11.24 12.75 10.89ZM18.16 5.91C15.71 5.91 14.14 7.43 14.14 9.84C14.14 12.24 15.71 13.78 18.16 13.78C20.61 13.78 22.18 12.24 22.18 9.84C22.18 7.43 20.61 5.91 18.16 5.91ZM18.16 12.07C17.26 12.07 16.72 11.33 16.72 9.84C16.72 8.34 17.26 7.62 18.16 7.62C19.05 7.62 19.60 8.34 19.60 9.84C19.60 11.33 19.05 12.07 18.16 12.07ZM31.12 6.10L28.60 6.10L28.60 7.07L28.11 6.27C27.73 6.05 27.01 5.91 26.39 5.91C24.47 5.91 22.85 7.24 22.85 9.90C22.85 12.11 24.25 13.50 26.28 13.50C27.03 13.50 27.62 13.34 28.04 13.03L28.60 12.21L28.60 12.42C28.60 12.82 28.59 13.17 28.57 13.40C28.50 14.41 27.82 14.81 26.88 14.81C26.10 14.81 25.52 14.53 25.47 14.04L25.45 13.90L23.02 13.90L23.03 14.04C23.21 15.75 24.57 16.66 26.81 16.66C29.34 16.66 31.02 15.57 31.11 13.12C31.12 12.71 31.12 12.14 31.12 11.68ZM27.01 11.79C26.12 11.79 25.42 11.12 25.42 9.72C25.42 8.19 26.10 7.62 27.08 7.62C27.83 7.62 28.60 8.12 28.60 9.62L28.60 9.66C28.60 11.23 27.93 11.79 27.01 11.79ZM43.33 5.88L43.33 3.92L34.54 3.92L34.54 5.88L37.67 5.88L37.67 13.58L40.19 13.58L40.19 5.88ZM45.30 3.07C44.52 3.07 44.00 3.54 44.00 4.30C44.00 5.05 44.52 5.53 45.30 5.53C46.09 5.53 46.61 5.05 46.61 4.30C46.61 3.54 46.09 3.07 45.30 3.07ZM46.56 13.58L46.56 6.10L44.04 6.10L44.04 13.58ZM60.10 7.80C59.93 6.78 59.09 5.91 57.60 5.91C56.91 5.91 56.45 6.06 55.99 6.34L55.20 7.36C54.88 6.54 54.08 5.91 52.81 5.91C52.12 5.91 51.66 6.06 51.20 6.34L50.60 7.31L50.60 6.10L48.08 6.10L48.08 13.58L50.60 13.58L50.60 9.63C50.60 8.36 50.92 7.62 51.73 7.62C52.39 7.62 52.72 8.04 52.81 8.75C52.85 9.13 52.86 9.53 52.86 9.77L52.86 13.58L55.38 13.58L55.38 9.63C55.38 8.36 55.71 7.62 56.52 7.62C57.18 7.62 57.51 8.04 57.60 8.75C57.64 9.13 57.65 9.53 57.65 9.77L57.65 13.58L60.17 13.58L60.17 9.21C60.17 8.61 60.16 8.18 60.10 7.80ZM68.92 9.74C68.92 7.81 67.66 5.91 65.17 5.91C62.68 5.91 61.18 7.69 61.18 9.87C61.18 12.50 62.89 13.78 65.03 13.78C66.95 13.78 68.35 12.82 68.78 11.13L66.30 11.13C66.21 11.70 65.77 12.07 65.06 12.07C64.34 12.07 63.80 11.72 63.67 10.47L68.88 10.47C68.91 10.22 68.92 9.97 68.92 9.74ZM65.04 7.62C65.72 7.62 66.15 8.05 66.29 8.93L63.76 8.93C63.92 8.01 64.39 7.62 65.04 7.62Z"></path></g><!----><!----></svg>